Coordinates
version=1
nRows=24
nColumns=24
inDegrees=yes

Units are S.I. units (second, meters, Newtons, ...)
If the header above contains a line with 'inDegrees', this indicates whether rotational values are in degrees (yes) or radians (no).

endheader
time	pelvis_tilt	pelvis_list	pelvis_rotation	pelvis_tx	pelvis_ty	pelvis_tz	hip_flexion_r	hip_adduction_r	hip_rotation_r	knee_angle_r	ankle_angle_r	subtalar_angle_r	mtp_angle_r	hip_flexion_l	hip_adduction_l	hip_rotation_l	knee_angle_l	ankle_angle_l	subtalar_angle_l	mtp_angle_l	lumbar_extension	lumbar_bending	lumbar_rotation
     18.00000000	      0.40596946	     -5.19443095	     -0.21806126	     -0.26597867	      0.68776334	      0.03449053	     59.56119161	    -20.94490112	    -14.78095941	   -101.45872036	     24.45503016	     13.08574281	      0.00000000	     68.14419248	    -34.24509005	      9.55839983	   -106.80197094	      7.67740187	     42.27767213	      0.00000000	    -47.13501197	      0.44594656	      5.27165201
     18.01000000	      0.36095042	     -5.21126091	     -0.20944933	     -0.26634879	      0.68763920	      0.03443024	     59.62591416	    -20.88272105	    -14.79268175	   -101.42741005	     24.48570418	     12.89987041	      0.00000000	     68.23934844	    -34.22803143	      9.57608671	   -106.80231264	      7.72293952	     42.24149965	      0.00000000	    -47.31758483	      0.44600727	      5.28611962
     18.02000000	      0.31030797	     -5.24236646	     -0.18823710	     -0.26673341	      0.68751521	      0.03435872	     59.68677968	    -20.80915217	    -14.82361491	   -101.39008421	     24.50789502	     12.68072198	      0.00000000	     68.36319819	    -34.20190702	      9.62105589	   -106.80400483	      7.72817797	     42.19426924	      0.00000000	    -47.50124118	      0.47529476	      5.28709775
     18.03000000	      0.25026073	     -5.27537040	     -0.15817316	     -0.26712466	      0.68738142	      0.03427771	     59.75615839	    -20.72725798	    -14.85345928	   -101.35004093	     24.53040566	     12.43062920	      0.00000000	     68.50109237	    -34.16267027	      9.67298372	   -106.80370577	      7.73975883	     42.13826573	      0.00000000	    -47.67537381	      0.51411409	      5.28094889
     18.04000000	      0.18099128	     -5.30812343	     -0.12074216	     -0.26751723	      0.68724018	      0.03418792	     59.83533606	    -20.63949683	    -14.87958654	   -101.30886287	     24.54864425	     12.15776387	      0.00000000	     68.64997263	    -34.10863644	      9.72953468	   -106.80165662	      7.74698149	     42.07388901	      0.00000000	    -47.84050400	      0.56014651	      5.26834688
     18.05000000	      0.10829981	     -5.33538911	     -0.07573067	     -0.26791522	      0.68709700	      0.03408540	     59.92096957	    -20.55115972	    -14.89183966	   -101.26785044	     24.57065227	     11.88371933	      0.00000000	     68.79987399	    -34.03244195	      9.79037480	   -106.79766524	      7.75053433	     42.00756258	      0.00000000	    -48.00021411	      0.60597575	      5.25068670
     18.06000000	      0.02805539	     -5.35798588	     -0.02832018	     -0.26829634	      0.68694937	      0.03397798	     60.01586782	    -20.46332282	    -14.89374060	   -101.22624183	     24.58347424	     11.60858365	      0.00000000	     68.95242622	    -33.94241997	      9.85208439	   -106.79177803	      7.74485710	     41.94194147	      0.00000000	    -48.15299067	      0.65293978	      5.22726080
     18.07000000	     -0.04835706	     -5.36836774	      0.02205353	     -0.26865908	      0.68679408	      0.03386267	     60.11297907	    -20.38629952	    -14.87287804	   -101.19184042	     24.60194238	     11.36506465	      0.00000000	     69.09184659	    -33.82991621	      9.91403390	   -106.78672020	      7.73176959	     41.88571538	      0.00000000	    -48.30453360	      0.69035926	      5.20243433
     18.08000000	     -0.12335186	     -5.36818350	      0.07032725	     -0.26900256	      0.68663868	      0.03374925	     60.21535096	    -20.31884076	    -14.83070782	   -101.16168317	     24.61270799	     11.16015989	      0.00000000	     69.21862520	    -33.70539747	      9.97153225	   -106.78039178	      7.71039536	     41.83880564	      0.00000000	    -48.45471546	      0.71866582	      5.17393422
     18.09000000	     -0.19370963	     -5.35567553	      0.11628408	     -0.26931995	      0.68647794	      0.03363985	     60.32125352	    -20.26641663	    -14.76391507	   -101.14048046	     24.61944952	     11.01416110	      0.00000000	     69.32888433	    -33.57261842	     10.02102680	   -106.77459696	      7.68350953	     41.80608705	      0.00000000	    -48.60486594	      0.73434512	      5.14390805
     18.10000000	     -0.24646768	     -5.34053120	      0.15081635	     -0.26959886	      0.68633932	      0.03356599	     60.41154195	    -20.21703305	    -14.67767077	   -101.12591852	     24.63688037	     10.97853667	      0.00000000	     69.40931647	    -33.46461537	     10.06032764	   -106.76777388	      7.67716265	     41.80507279	      0.00000000	    -48.77824288	      0.73903849	      5.13404949
     18.11000000	     -0.31418543	     -5.30465089	      0.20423056	     -0.26989553	      0.68615335	      0.03345429	     60.53536992	    -20.21038714	    -14.57254169	   -101.12558894	     24.59821812	     10.91416625	      0.00000000	     69.50731064	    -33.32221120	     10.08640170	   -106.76095788	      7.61047031	     41.78403087	      0.00000000	    -48.90908985	      0.73732607	      5.08657338
     18.12000000	     -0.38034656	     -5.27619619	      0.24254545	     -0.27017247	      0.68595344	      0.03338518	     60.66162142	    -20.19785428	    -14.45537251	   -101.13124492	     24.56286987	     10.95526366	      0.00000000	     69.60746806	    -33.22716473	     10.10303471	   -106.75785498	      7.57037844	     41.78912866	      0.00000000	    -49.04778371	      0.72589974	      5.03967887
     18.13000000	     -0.44120052	     -5.24611363	      0.28391502	     -0.27043967	      0.68575397	      0.03332980	     60.78685441	    -20.19841445	    -14.33147380	   -101.14551481	     24.52080749	     11.04464008	      0.00000000	     69.70313391	    -33.15129939	     10.10732258	   -106.75256798	      7.52772981	     41.80575059	      0.00000000	    -49.18544966	      0.71551592	      4.99391969
     18.14000000	     -0.49127558	     -5.22170647	      0.32460720	     -0.27070111	      0.68555906	      0.03328079	     60.90334676	    -20.20170856	    -14.20866310	   -101.16639006	     24.46614942	     11.15814226	      0.00000000	     69.79372204	    -33.09983263	     10.10484110	   -106.74980750	      7.49164010	     41.82913240	      0.00000000	    -49.33292277	      0.70486426	      4.95891475
     18.15000000	     -0.53607324	     -5.19705170	      0.36442987	     -0.27094571	      0.68535809	      0.03322702	     61.01566772	    -20.21132632	    -14.08471227	   -101.19178081	     24.40785913	     11.29089417	      0.00000000	     69.88053375	    -33.06651697	     10.08983643	   -106.75216666	      7.45838383	     41.85478035	      0.00000000	    -49.47745384	      0.69236307	      4.92666259
     18.16000000	     -0.57428317	     -5.17436733	      0.40306241	     -0.27116771	      0.68515015	      0.03317389	     61.11910064	    -20.22366300	    -13.96897002	   -101.22138023	     24.35748846	     11.41951613	      0.00000000	     69.96119004	    -33.04931424	     10.06697683	   -106.75827058	      7.43677347	     41.87554556	      0.00000000	    -49.61997291	      0.68163297	      4.89778506
     18.17000000	     -0.60677720	     -5.16022957	      0.44132242	     -0.27136133	      0.68495330	      0.03312025	     61.20590803	    -20.23518394	    -13.87878070	   -101.24974983	     24.31853429	     11.51221042	      0.00000000	     70.03718078	    -33.04816544	     10.04244750	   -106.76586234	      7.43223808	     41.88843811	      0.00000000	    -49.77063130	      0.67802366	      4.88073102
     18.18000000	     -0.62864191	     -5.13980687	      0.47772069	     -0.27153828	      0.68473986	      0.03305545	     61.28288326	    -20.25598924	    -13.79233206	   -101.28646226	     24.29740419	     11.60748987	      0.00000000	     70.09796364	    -33.04354891	     10.01105190	   -106.78240746	      7.43604805	     41.89165967	      0.00000000	    -49.90572247	      0.67097620	      4.86032720
     18.19000000	     -0.65161121	     -5.13526313	      0.51236378	     -0.27169306	      0.68453941	      0.03300349	     61.34123190	    -20.26572657	    -13.74634440	   -101.31111139	     24.29655638	     11.63106536	      0.00000000	     70.16568487	    -33.05043467	      9.99508654	   -106.79713076	      7.45395819	     41.89260137	      0.00000000	    -50.04814354	      0.67604722	      4.85659648
     18.20000000	     -0.67251220	     -5.12706712	      0.54567495	     -0.27183586	      0.68433656	      0.03293740	     61.39335508	    -20.28991504	    -13.71613266	   -101.33665459	     24.29509798	     11.65309455	      0.00000000	     70.22774532	    -33.05412713	      9.97352563	   -106.81718444	      7.47690909	     41.88913988	      0.00000000	    -50.18533415	      0.67418100	      4.85407343
     18.21000000	     -0.69339013	     -5.11834317	      0.57823203	     -0.27196913	      0.68412853	      0.03287694	     61.44187247	    -20.32186984	    -13.70264332	   -101.36443145	     24.30391504	     11.66121643	      0.00000000	     70.28631154	    -33.05554332	      9.95218450	   -106.83564904	      7.50467304	     41.88224496	      0.00000000	    -50.31965954	      0.67099784	      4.85268595
     18.22000000	     -0.70366634	     -5.10035646	      0.62296668	     -0.27209850	      0.68394143	      0.03276950	     61.47563163	    -20.37809736	    -13.69484533	   -101.39183585	     24.31307596	     11.66336763	      0.00000000	     70.32326377	    -33.02950341	      9.92294339	   -106.85399016	      7.55633905	     41.84970366	      0.00000000	    -50.46139369	      0.67149668	      4.84421182
     18.23000000	     -0.72614349	     -5.09446566	      0.65171302	     -0.27222391	      0.68372793	      0.03272624	     61.52220043	    -20.40331848	    -13.69144791	   -101.41743499	     24.33344677	     11.65198088	      0.00000000	     70.38221335	    -33.02582314	      9.91389323	   -106.87174560	      7.58241778	     41.84722805	      0.00000000	    -50.59603710	      0.66505058	      4.84295982
